# xmcd
#
# Track frame offsets:
#	150
#	25810
#	46202
#	64982
#	74255
#	98315
#	112884
#	136770
#	158115
#	183733
#	216620
#	230076
#	255421
#	278408
#	298857
#
# Disc length: 4217
#
# Revision: 1
# Processed by: cddbd v1.5.1PL0 Copyright (c) Steve Scherf et al.
# Submitted via: EZCDDA 4.3.3.2
# Normalized: r0:DSETVAR1,TDELIM( - )
#
DISCID=d710770f
DTITLE=Various Artist - BLUES 2000
DYEAR=1900
DGENRE=
TTITLE0=Little Blue - Cold Rain
TTITLE1=ZZ Top - 2000 Blues
TTITLE2=Bet Hart Band - Am I The One
TTITLE3=Little Blue - Noonwine
TTITLE4=Kenny Wine Shepherd Band - Blue On Black
TTITLE5=Rhythm Kings - Bad To Be Alone
TTITLE6=Smokin' Joe Kubek - Walk On
TTITLE7=Fury In The Slaughterhouse - Diggin' The Soul
TTITLE8=ZZ Top - Cover Your Rig
TTITLE9=Eric Clapton - River Of Tears
TTITLE10=Slade - Howlin' Wind
TTITLE11=Toto - Baby He's Your man
TTITLE12=Glen Hughes - So Much Love To Give
TTITLE13=Robin Trower - Shining Through
TTITLE14=John Mayall and The Bluesbreakers - Dead City
EXTD=Compilation 2000 DJ DG Ltd.
EXTT0=
EXTT1=
EXTT2=
EXTT3=
EXTT4=
EXTT5=
EXTT6=
EXTT7=
EXTT8=
EXTT9=
EXTT10=
EXTT11=
EXTT12=
EXTT13=
EXTT14=
PLAYORDER=
